# xmcd
#
# Track frame offsets:
#	150
#	18947
#	35635
#	48621
#	59385
#	67661
#	79285
#	97683
#	112094
#	127359
#	136100
#
# Disc length: 2111 seconds
#
# Revision: 1
# Processed by: cddbd v1.5.2PL0 Copyright (c) Steve Scherf et al.
# Submitted via: audiograbber 1.83.01
#
DISCID=94083d0b
DTITLE=Steven Jaymes - The Travellers'
DYEAR=1900
DGENRE=Pop
TTITLE0=Darlin'
TTITLE1=After All These Years
TTITLE2=Waiting For Time
TTITLE3=You Don't Know Me
TTITLE4=Travellers' Lament
TTITLE5=Don't Tell Me
TTITLE6=The Travellers'
TTITLE7=Same Old Songs
TTITLE8=The Lesson
TTITLE9=Coming Home Part II
TTITLE10=My Funny Valentine
EXTD=
EXTT0=
EXTT1=
EXTT2=
EXTT3=
EXTT4=
EXTT5=
EXTT6=
EXTT7=
EXTT8=
EXTT9=
EXTT10=
PLAYORDER=
